<mxfile host="app.diagrams.net" modified="2023-03-29T14:09:40.047Z" agent="Mozilla/5.0 (Windows NT 10.0; Win64; x64) AppleWebKit/537.36 (KHTML, like Gecko) Chrome/111.0.0.0 Safari/537.36 Edg/111.0.1661.54" etag="oM5FTrxsYSMPE-jjF6ao" version="21.1.1" type="github">
  <diagram id="07fea595-8f29-1299-0266-81d95cde20df" name="Page-1">
    <mxGraphModel dx="1377" dy="756" grid="1" gridSize="10" guides="1" tooltips="1" connect="1" arrows="1" fold="1" page="1" pageScale="1" pageWidth="1169" pageHeight="827" background="#ffffff" math="0" shadow="0">
      <root>
        <mxCell id="0" />
        <mxCell id="1" parent="0" />
        <mxCell id="KegD0Um9H_0uhLg5imTw-303" style="edgeStyle=orthogonalEdgeStyle;rounded=1;orthogonalLoop=1;jettySize=auto;html=1;endArrow=block;strokeColor=#d79b00;strokeWidth=3;endFill=1;startArrow=classic;startFill=1;fillColor=#ffe6cc;exitX=0.5;exitY=0;exitDx=0;exitDy=0;" edge="1" parent="1" source="KegD0Um9H_0uhLg5imTw-248">
          <mxGeometry relative="1" as="geometry">
            <mxPoint x="1110" y="980" as="targetPoint" />
            <mxPoint x="650" y="1500" as="sourcePoint" />
            <Array as="points">
              <mxPoint x="745" y="1100" />
              <mxPoint x="810" y="1100" />
              <mxPoint x="810" y="980" />
            </Array>
          </mxGeometry>
        </mxCell>
        <mxCell id="170" value="&lt;font color=&quot;#23497d&quot;&gt;Inside Sales Rep&lt;/font&gt;" style="swimlane;whiteSpace=wrap;fillColor=none;swimlaneFillColor=#BAC8D3;fontColor=#2F5B7C;fontFamily=Tahoma;html=1;strokeColor=none;opacity=50;" parent="1" vertex="1">
          <mxGeometry x="24.5" y="88.5" width="160" height="650" as="geometry">
            <mxRectangle x="20" y="20" width="80" height="23" as="alternateBounds" />
          </mxGeometry>
        </mxCell>
        <mxCell id="171" value="Customer Management" style="whiteSpace=wrap;shadow=0;fontColor=#FFFFFF;fontFamily=Helvetica;fontStyle=0;html=1;fontSize=12;plain-purple;strokeColor=none;fillColor=#2f5b7c;gradientColor=none;spacing=6;verticalAlign=middle;" parent="170" vertex="1">
          <mxGeometry x="20" y="60" width="120" height="60" as="geometry" />
        </mxCell>
        <mxCell id="172" value="Credit Management" style="whiteSpace=wrap;strokeColor=none;fillColor=#2f5b7c;shadow=0;fontColor=#FFFFFF;fontFamily=Helvetica;fontStyle=0;html=1;fontSize=12;spacing=6;verticalAlign=middle;" parent="170" vertex="1">
          <mxGeometry x="20" y="375" width="120" height="60" as="geometry" />
        </mxCell>
        <mxCell id="173" value="Price Management" style="whiteSpace=wrap;strokeColor=none;fillColor=#2f5b7c;shadow=0;fontColor=#FFFFFF;fontFamily=Helvetica;fontStyle=0;html=1;fontSize=12;spacing=6;verticalAlign=middle;" parent="170" vertex="1">
          <mxGeometry x="20" y="485" width="120" height="60" as="geometry" />
        </mxCell>
        <mxCell id="174" value="" style="edgeStyle=segmentEdgeStyle;strokeColor=#2F5B7C;strokeWidth=3;html=1;endArrow=block;endFill=1;" parent="170" source="172" target="173" edge="1">
          <mxGeometry width="100" height="100" relative="1" as="geometry">
            <mxPoint x="170" y="397.5" as="sourcePoint" />
            <mxPoint x="270" y="472.5" as="targetPoint" />
          </mxGeometry>
        </mxCell>
        <mxCell id="175" value="" style="edgeStyle=segmentEdgeStyle;strokeColor=#2F5B7C;strokeWidth=3;html=1;endArrow=block;endFill=1;" parent="170" source="171" target="172" edge="1">
          <mxGeometry width="100" height="100" relative="1" as="geometry">
            <mxPoint x="160" y="110" as="sourcePoint" />
            <mxPoint x="260" y="185" as="targetPoint" />
          </mxGeometry>
        </mxCell>
        <mxCell id="176" value="&lt;font color=&quot;#23497d&quot;&gt;Inside Sales Manager&lt;/font&gt;" style="swimlane;whiteSpace=wrap;fillColor=none;swimlaneFillColor=#BAC8D3;fontColor=#2F5B7C;fontFamily=Tahoma;html=1;strokeColor=none;opacity=25;" parent="1" vertex="1">
          <mxGeometry x="824.5" y="88.5" width="160" height="650" as="geometry">
            <mxRectangle x="20" y="20" width="80" height="23" as="alternateBounds" />
          </mxGeometry>
        </mxCell>
        <mxCell id="177" value="Sales Contract" style="shape=document;whiteSpace=wrap;verticalAlign=middle;strokeColor=none;fillColor=#12aab5;shadow=0;fontColor=#FFFFFF;fontFamily=Helvetica;fontStyle=0;html=1;fontSize=12;spacing=6;spacingBottom=22;" parent="176" vertex="1">
          <mxGeometry x="20" y="50" width="120" height="80" as="geometry" />
        </mxCell>
        <mxCell id="178" value="Bills" style="shape=document;whiteSpace=wrap;verticalAlign=middle;strokeColor=none;fillColor=#12aab5;shadow=0;fontColor=#FFFFFF;fontFamily=Helvetica;fontStyle=0;html=1;fontSize=12;spacing=6;spacingBottom=22;" parent="176" vertex="1">
          <mxGeometry x="20" y="530" width="120" height="80" as="geometry" />
        </mxCell>
        <mxCell id="179" value="Cost Allocation" style="whiteSpace=wrap;strokeColor=none;fillColor=#2f5b7c;shadow=0;fontColor=#FFFFFF;fontFamily=Helvetica;fontStyle=0;html=1;fontSize=12;spacing=6;verticalAlign=middle;" parent="176" vertex="1">
          <mxGeometry x="20" y="305" width="120" height="60" as="geometry" />
        </mxCell>
        <mxCell id="180" value="&lt;font color=&quot;#23497d&quot;&gt;VP Sales&lt;/font&gt;" style="swimlane;whiteSpace=wrap;fillColor=none;swimlaneFillColor=#BAC8D3;fontColor=#2F5B7C;fontFamily=Tahoma;html=1;strokeColor=none;opacity=50;" parent="1" vertex="1">
          <mxGeometry x="664.5" y="88.5" width="160" height="650" as="geometry">
            <mxRectangle x="20" y="20" width="80" height="23" as="alternateBounds" />
          </mxGeometry>
        </mxCell>
        <mxCell id="181" value="Outbound Accounting" style="whiteSpace=wrap;fillColor=#2f5b7c;strokeColor=none;shadow=0;fontColor=#FFFFFF;fontFamily=Helvetica;fontStyle=0;html=1;fontSize=12;spacing=6;verticalAlign=middle;" parent="180" vertex="1">
          <mxGeometry x="20" y="160" width="120" height="60" as="geometry" />
        </mxCell>
        <mxCell id="182" value="Account Processing" style="whiteSpace=wrap;strokeColor=none;fillColor=#2f5b7c;shadow=0;fontColor=#FFFFFF;fontFamily=Helvetica;fontStyle=0;html=1;fontSize=12;spacing=6;verticalAlign=middle;" parent="180" vertex="1">
          <mxGeometry x="20" y="420" width="120" height="60" as="geometry" />
        </mxCell>
        <mxCell id="183" value="&lt;font color=&quot;#23497d&quot;&gt;Sales Admin&lt;/font&gt;" style="swimlane;whiteSpace=wrap;fillColor=none;swimlaneFillColor=#BAC8D3;fontColor=#2F5B7C;fontFamily=Tahoma;html=1;strokeColor=none;opacity=25;" parent="1" vertex="1">
          <mxGeometry x="184.5" y="88.5" width="160" height="650" as="geometry">
            <mxRectangle x="20" y="20" width="80" height="23" as="alternateBounds" />
          </mxGeometry>
        </mxCell>
        <mxCell id="184" value="Material Requirements Planning Operation" style="whiteSpace=wrap;shadow=0;fontColor=#FFFFFF;fontFamily=Helvetica;fontStyle=0;html=1;fontSize=12;plain-purple;strokeColor=none;fillColor=#2f5b7c;gradientColor=none;spacing=6;verticalAlign=middle;" parent="183" vertex="1">
          <mxGeometry x="20" y="165" width="120" height="60" as="geometry" />
        </mxCell>
        <mxCell id="185" value="&lt;font color=&quot;#ffffff&quot;&gt;Facilities Procurement&lt;br&gt;Application&lt;/font&gt;&lt;br&gt; " style="shape=document;whiteSpace=wrap;verticalAlign=middle;strokeColor=none;fillColor=#12aab5;shadow=0;fontColor=#FFFFFF;fontFamily=Helvetica;fontStyle=0;html=1;fontSize=12;spacing=6;spacingBottom=22;" parent="183" vertex="1">
          <mxGeometry x="20" y="265" width="120" height="80" as="geometry" />
        </mxCell>
        <mxCell id="186" value="" style="edgeStyle=segmentEdgeStyle;strokeColor=#2F5B7C;strokeWidth=3;html=1;endArrow=block;endFill=1;" parent="183" source="184" target="185" edge="1">
          <mxGeometry width="100" height="100" relative="1" as="geometry">
            <mxPoint x="-10" y="100" as="sourcePoint" />
            <mxPoint x="90" y="175" as="targetPoint" />
          </mxGeometry>
        </mxCell>
        <mxCell id="187" value="&lt;font color=&quot;#23497d&quot;&gt;Sales Representative&lt;/font&gt;" style="swimlane;whiteSpace=wrap;fillColor=none;swimlaneFillColor=#BAC8D3;fontColor=#2F5B7C;fontFamily=Tahoma;html=1;strokeColor=none;opacity=50;" parent="1" vertex="1">
          <mxGeometry x="344.5" y="88.5" width="160" height="650" as="geometry">
            <mxRectangle x="20" y="20" width="80" height="23" as="alternateBounds" />
          </mxGeometry>
        </mxCell>
        <mxCell id="188" value="Product Quotations" style="shape=document;whiteSpace=wrap;verticalAlign=middle;strokeColor=none;fillColor=#12aab5;shadow=0;fontColor=#FFFFFF;fontFamily=Helvetica;fontStyle=0;html=1;fontSize=12;spacing=6;spacingBottom=22;" parent="187" vertex="1">
          <mxGeometry x="20" y="50" width="120" height="80" as="geometry" />
        </mxCell>
        <mxCell id="189" value="Orders" style="shape=document;whiteSpace=wrap;verticalAlign=middle;strokeColor=none;fillColor=#12aab5;shadow=0;fontColor=#FFFFFF;fontFamily=Helvetica;fontStyle=0;html=1;fontSize=12;spacing=6;spacingBottom=22;" parent="187" vertex="1">
          <mxGeometry x="20" y="225" width="120" height="80" as="geometry" />
        </mxCell>
        <mxCell id="190" value="Product Delivery Notification" style="shape=document;whiteSpace=wrap;strokeColor=none;fillColor=#12aab5;shadow=0;fontColor=#FFFFFF;fontFamily=Helvetica;fontStyle=0;html=1;fontSize=12;verticalAlign=middle;spacing=6;spacingBottom=22;" parent="187" vertex="1">
          <mxGeometry x="20" y="400" width="120" height="80" as="geometry" />
        </mxCell>
        <mxCell id="191" value="Invoice" style="shape=document;whiteSpace=wrap;verticalAlign=middle;strokeColor=none;fillColor=#12aab5;shadow=0;fontColor=#FFFFFF;fontFamily=Helvetica;fontStyle=0;html=1;fontSize=12;spacing=6;spacingBottom=22;" parent="187" vertex="1">
          <mxGeometry x="20" y="520" width="120" height="80" as="geometry" />
        </mxCell>
        <mxCell id="192" value="" style="edgeStyle=segmentEdgeStyle;strokeColor=#12AAB5;strokeWidth=3;html=1;endArrow=block;endFill=1;" parent="187" source="190" target="191" edge="1">
          <mxGeometry width="100" height="100" relative="1" as="geometry">
            <mxPoint x="-80" y="375" as="sourcePoint" />
            <mxPoint x="60" y="490" as="targetPoint" />
            <Array as="points">
              <mxPoint x="53" y="501" />
              <mxPoint x="53" y="501" />
            </Array>
          </mxGeometry>
        </mxCell>
        <mxCell id="193" value="&lt;font color=&quot;#23497d&quot;&gt;Sales Manager&lt;/font&gt;" style="swimlane;whiteSpace=wrap;fillColor=none;swimlaneFillColor=#BAC8D3;fontColor=#2F5B7C;fontFamily=Tahoma;html=1;strokeColor=none;opacity=25;" parent="1" vertex="1">
          <mxGeometry x="504.5" y="88.5" width="160" height="650" as="geometry">
            <mxRectangle x="20" y="20" width="80" height="23" as="alternateBounds" />
          </mxGeometry>
        </mxCell>
        <mxCell id="194" value="Inventory Control" style="whiteSpace=wrap;strokeColor=none;fillColor=#2f5b7c;shadow=0;fontColor=#FFFFFF;fontFamily=Helvetica;fontStyle=0;html=1;fontSize=12;spacing=6;verticalAlign=middle;" parent="193" vertex="1">
          <mxGeometry x="20" y="160" width="120" height="60" as="geometry" />
        </mxCell>
        <mxCell id="195" value="Product Delivery" style="whiteSpace=wrap;strokeColor=none;fillColor=#2f5b7c;shadow=0;fontColor=#FFFFFF;fontFamily=Helvetica;fontStyle=0;html=1;fontSize=12;spacing=6;verticalAlign=middle;" parent="193" vertex="1">
          <mxGeometry x="20" y="315" width="120" height="60" as="geometry" />
        </mxCell>
        <mxCell id="196" value="Director" style="swimlane;whiteSpace=wrap;fillColor=none;swimlaneFillColor=#BAC8D3;fontColor=#2F5B7C;fontFamily=Tahoma;html=1;strokeColor=none;opacity=50;" parent="1" vertex="1">
          <mxGeometry x="984.5" y="88.5" width="160" height="650" as="geometry">
            <mxRectangle x="20" y="20" width="80" height="23" as="alternateBounds" />
          </mxGeometry>
        </mxCell>
        <mxCell id="197" value="Outbounding Management" style="shape=document;whiteSpace=wrap;verticalAlign=middle;strokeColor=none;fillColor=#12aab5;shadow=0;fontColor=#FFFFFF;fontFamily=Helvetica;fontStyle=0;html=1;fontSize=12;spacing=6;spacingBottom=22;" parent="196" vertex="1">
          <mxGeometry x="20" y="130" width="120" height="80" as="geometry" />
        </mxCell>
        <mxCell id="198" value="Resources Allocation" style="whiteSpace=wrap;strokeColor=none;fillColor=#2f5b7c;shadow=0;fontColor=#FFFFFF;fontFamily=Helvetica;fontStyle=0;html=1;fontSize=12;spacing=6;verticalAlign=middle;" parent="196" vertex="1">
          <mxGeometry x="20" y="255" width="120" height="60" as="geometry" />
        </mxCell>
        <mxCell id="199" value="Long Term Strategy" style="whiteSpace=wrap;strokeColor=none;fillColor=#2f5b7c;shadow=0;fontColor=#FFFFFF;fontFamily=Helvetica;fontStyle=0;html=1;fontSize=12;spacing=6;verticalAlign=middle;" parent="196" vertex="1">
          <mxGeometry x="20" y="400" width="120" height="60" as="geometry" />
        </mxCell>
        <mxCell id="200" value="" style="edgeStyle=segmentEdgeStyle;strokeColor=#2F5B7C;strokeWidth=3;html=1;endArrow=block;endFill=1;" parent="196" source="198" target="199" edge="1">
          <mxGeometry width="100" height="100" relative="1" as="geometry">
            <mxPoint x="30" y="570" as="sourcePoint" />
            <mxPoint x="130" y="470" as="targetPoint" />
          </mxGeometry>
        </mxCell>
        <mxCell id="201" value="" style="edgeStyle=segmentEdgeStyle;entryX=0.25;entryY=0;strokeColor=#12AAB5;strokeWidth=3;html=1;endArrow=block;endFill=1;" parent="196" source="197" target="198" edge="1">
          <mxGeometry width="100" height="100" relative="1" as="geometry">
            <mxPoint x="-120" y="260" as="sourcePoint" />
            <mxPoint x="-20" y="160" as="targetPoint" />
          </mxGeometry>
        </mxCell>
        <mxCell id="202" value="" style="edgeStyle=segmentEdgeStyle;strokeColor=#2F5B7C;strokeWidth=3;html=1;endArrow=block;endFill=1;" parent="1" source="171" target="184" edge="1">
          <mxGeometry x="164.5" y="178.5" width="100" height="100" as="geometry">
            <mxPoint x="224.5" y="248.5" as="sourcePoint" />
            <mxPoint x="324.5" y="148.5" as="targetPoint" />
          </mxGeometry>
        </mxCell>
        <mxCell id="203" value="" style="edgeStyle=segmentEdgeStyle;strokeColor=#12AAB5;strokeWidth=3;html=1;endArrow=block;endFill=1;" parent="1" source="185" target="172" edge="1">
          <mxGeometry x="164.5" y="433.5" width="100" height="100" as="geometry">
            <mxPoint x="274.5" y="323.5" as="sourcePoint" />
            <mxPoint x="274.5" y="363.5" as="targetPoint" />
            <Array as="points">
              <mxPoint x="234.5" y="493.5" />
            </Array>
          </mxGeometry>
        </mxCell>
        <mxCell id="204" value="" style="edgeStyle=segmentEdgeStyle;strokeColor=#2F5B7C;strokeWidth=3;html=1;endArrow=block;endFill=1;" parent="1" source="171" target="188" edge="1">
          <mxGeometry x="164.5" y="178.5" width="100" height="100" as="geometry">
            <mxPoint x="174.5" y="188.5" as="sourcePoint" />
            <mxPoint x="274.5" y="263.5" as="targetPoint" />
          </mxGeometry>
        </mxCell>
        <mxCell id="205" value="" style="edgeStyle=segmentEdgeStyle;strokeColor=#12AAB5;strokeWidth=3;html=1;endArrow=block;endFill=1;" parent="1" source="185" target="190" edge="1">
          <mxGeometry x="234.5" y="433.5" width="100" height="100" as="geometry">
            <mxPoint x="384.5" y="818.5" as="sourcePoint" />
            <mxPoint x="484.5" y="718.5" as="targetPoint" />
            <Array as="points">
              <mxPoint x="234.5" y="528.5" />
            </Array>
          </mxGeometry>
        </mxCell>
        <mxCell id="206" value="" style="edgeStyle=elbowEdgeStyle;elbow=vertical;strokeColor=#12AAB5;strokeWidth=3;html=1;endArrow=block;endFill=1;" parent="1" source="191" target="178" edge="1">
          <mxGeometry x="484.5" y="623.5" width="100" height="100" as="geometry">
            <mxPoint x="544.5" y="618.5" as="sourcePoint" />
            <mxPoint x="644.5" y="518.5" as="targetPoint" />
          </mxGeometry>
        </mxCell>
        <mxCell id="207" value="" style="edgeStyle=segmentEdgeStyle;strokeColor=#2F5B7C;strokeWidth=3;html=1;endArrow=block;endFill=1;" parent="1" source="184" target="189" edge="1">
          <mxGeometry x="324.5" y="283.5" width="100" height="100" as="geometry">
            <mxPoint x="454.5" y="298.5" as="sourcePoint" />
            <mxPoint x="554.5" y="198.5" as="targetPoint" />
            <Array as="points" />
          </mxGeometry>
        </mxCell>
        <mxCell id="208" value="" style="edgeStyle=segmentEdgeStyle;strokeColor=#12AAB5;strokeWidth=3;html=1;endArrow=block;endFill=1;" parent="1" source="188" target="194" edge="1">
          <mxGeometry x="484.5" y="178.5" width="100" height="100" as="geometry">
            <mxPoint x="444.5" y="248.5" as="sourcePoint" />
            <mxPoint x="544.5" y="148.5" as="targetPoint" />
          </mxGeometry>
        </mxCell>
        <mxCell id="209" value="" style="edgeStyle=none;strokeColor=#2F5B7C;strokeWidth=3;html=1;endArrow=block;endFill=1;" parent="1" source="194" target="181" edge="1">
          <mxGeometry x="644.5" y="278.5" width="100" height="100" as="geometry">
            <mxPoint x="684.5" y="458.5" as="sourcePoint" />
            <mxPoint x="784.5" y="358.5" as="targetPoint" />
          </mxGeometry>
        </mxCell>
        <mxCell id="210" value="" style="edgeStyle=segmentEdgeStyle;strokeColor=#12AAB5;strokeWidth=3;html=1;endArrow=block;endFill=1;" parent="1" source="189" target="195" edge="1">
          <mxGeometry x="404.5" y="393.5" width="100" height="100" as="geometry">
            <mxPoint x="524.5" y="488.5" as="sourcePoint" />
            <mxPoint x="624.5" y="388.5" as="targetPoint" />
            <Array as="points">
              <mxPoint x="404.5" y="438.5" />
            </Array>
          </mxGeometry>
        </mxCell>
        <mxCell id="211" value="" style="edgeStyle=segmentEdgeStyle;strokeColor=#2F5B7C;strokeWidth=3;html=1;endArrow=block;endFill=1;" parent="1" source="195" target="181" edge="1">
          <mxGeometry x="644.5" y="308.5" width="100" height="100" as="geometry">
            <mxPoint x="644.5" y="438.5" as="sourcePoint" />
            <mxPoint x="744.5" y="338.5" as="targetPoint" />
            <Array as="points">
              <mxPoint x="745" y="434" />
            </Array>
          </mxGeometry>
        </mxCell>
        <mxCell id="212" value="" style="edgeStyle=segmentEdgeStyle;strokeColor=#2F5B7C;strokeWidth=3;html=1;endArrow=block;endFill=1;" parent="1" source="195" target="182" edge="1">
          <mxGeometry x="644.5" y="433.5" width="100" height="100" as="geometry">
            <mxPoint x="514.5" y="588.5" as="sourcePoint" />
            <mxPoint x="614.5" y="488.5" as="targetPoint" />
          </mxGeometry>
        </mxCell>
        <mxCell id="213" value="" style="edgeStyle=segmentEdgeStyle;strokeColor=#2F5B7C;strokeWidth=3;html=1;endArrow=block;endFill=1;" parent="1" source="181" target="177" edge="1">
          <mxGeometry x="744.5" y="178.5" width="100" height="100" as="geometry">
            <mxPoint x="864.5" y="378.5" as="sourcePoint" />
            <mxPoint x="964.5" y="278.5" as="targetPoint" />
            <Array as="points">
              <mxPoint x="744.5" y="178.5" />
            </Array>
          </mxGeometry>
        </mxCell>
        <mxCell id="214" value="" style="edgeStyle=segmentEdgeStyle;strokeColor=#2F5B7C;strokeWidth=3;html=1;endArrow=block;endFill=1;" parent="1" source="181" target="179" edge="1">
          <mxGeometry x="804.5" y="278.5" width="100" height="100" as="geometry">
            <mxPoint x="854.5" y="388.5" as="sourcePoint" />
            <mxPoint x="954.5" y="288.5" as="targetPoint" />
          </mxGeometry>
        </mxCell>
        <mxCell id="215" value="" style="edgeStyle=segmentEdgeStyle;strokeColor=#2F5B7C;strokeWidth=3;html=1;endArrow=block;endFill=1;" parent="1" source="182" target="178" edge="1">
          <mxGeometry x="804.5" y="538.5" width="100" height="100" as="geometry">
            <mxPoint x="884.5" y="578.5" as="sourcePoint" />
            <mxPoint x="984.5" y="478.5" as="targetPoint" />
          </mxGeometry>
        </mxCell>
        <mxCell id="216" value="" style="edgeStyle=segmentEdgeStyle;strokeColor=#2F5B7C;strokeWidth=3;html=1;endArrow=block;endFill=1;" parent="1" source="179" target="199" edge="1">
          <mxGeometry x="964.5" y="423.5" width="100" height="100" as="geometry">
            <mxPoint x="1094.5" y="498.5" as="sourcePoint" />
            <mxPoint x="1194.5" y="398.5" as="targetPoint" />
          </mxGeometry>
        </mxCell>
        <mxCell id="217" value="" style="edgeStyle=segmentEdgeStyle;strokeColor=#12AAB5;strokeWidth=3;html=1;endArrow=block;endFill=1;" parent="1" source="177" target="197" edge="1">
          <mxGeometry x="964.5" y="178.5" width="100" height="100" as="geometry">
            <mxPoint x="854.5" y="348.5" as="sourcePoint" />
            <mxPoint x="954.5" y="248.5" as="targetPoint" />
          </mxGeometry>
        </mxCell>
        <mxCell id="KegD0Um9H_0uhLg5imTw-217" value="&lt;font color=&quot;#23497d&quot;&gt;跟终端关联的队列&lt;/font&gt;" style="swimlane;whiteSpace=wrap;fillColor=#e1d5e7;swimlaneFillColor=#BAC8D3;fontFamily=Tahoma;html=1;strokeColor=#9673a6;opacity=50;" vertex="1" parent="1">
          <mxGeometry x="520" y="805" width="140" height="605" as="geometry">
            <mxRectangle x="20" y="20" width="80" height="23" as="alternateBounds" />
          </mxGeometry>
        </mxCell>
        <mxCell id="KegD0Um9H_0uhLg5imTw-218" value="原始位置队列" style="whiteSpace=wrap;fillColor=#2f5b7c;strokeColor=none;shadow=0;fontColor=#FFFFFF;fontFamily=Helvetica;fontStyle=0;html=1;fontSize=12;spacing=6;verticalAlign=middle;" vertex="1" parent="KegD0Um9H_0uhLg5imTw-217">
          <mxGeometry x="19" y="60" width="100" height="50" as="geometry" />
        </mxCell>
        <mxCell id="KegD0Um9H_0uhLg5imTw-220" value="上行队列" style="whiteSpace=wrap;fillColor=#2f5b7c;strokeColor=none;shadow=0;fontColor=#FFFFFF;fontFamily=Helvetica;fontStyle=0;html=1;fontSize=12;spacing=6;verticalAlign=middle;" vertex="1" parent="KegD0Um9H_0uhLg5imTw-217">
          <mxGeometry x="20" y="120" width="100" height="50" as="geometry" />
        </mxCell>
        <mxCell id="KegD0Um9H_0uhLg5imTw-221" value="待发送指令队列" style="whiteSpace=wrap;fillColor=#2f5b7c;strokeColor=none;shadow=0;fontColor=#FFFFFF;fontFamily=Helvetica;fontStyle=0;html=1;fontSize=12;spacing=6;verticalAlign=middle;" vertex="1" parent="KegD0Um9H_0uhLg5imTw-217">
          <mxGeometry x="20" y="355" width="100" height="50" as="geometry" />
        </mxCell>
        <mxCell id="KegD0Um9H_0uhLg5imTw-222" value="指令应答队列" style="whiteSpace=wrap;fillColor=#2f5b7c;strokeColor=none;shadow=0;fontColor=#FFFFFF;fontFamily=Helvetica;fontStyle=0;html=1;fontSize=12;spacing=6;verticalAlign=middle;" vertex="1" parent="KegD0Um9H_0uhLg5imTw-217">
          <mxGeometry x="20" y="425" width="100" height="50" as="geometry" />
        </mxCell>
        <mxCell id="KegD0Um9H_0uhLg5imTw-223" value="终端、平台" style="swimlane;whiteSpace=wrap;fillColor=#e1d5e7;swimlaneFillColor=#BAC8D3;fontFamily=Tahoma;html=1;strokeColor=#9673a6;opacity=50;startSize=23;" vertex="1" parent="1">
          <mxGeometry x="170" y="805" width="110" height="615" as="geometry">
            <mxRectangle x="20" y="20" width="80" height="23" as="alternateBounds" />
          </mxGeometry>
        </mxCell>
        <mxCell id="KegD0Um9H_0uhLg5imTw-224" value="终端" style="shape=document;whiteSpace=wrap;verticalAlign=middle;strokeColor=none;fillColor=#12aab5;shadow=0;fontColor=#FFFFFF;fontFamily=Helvetica;fontStyle=0;html=1;fontSize=12;spacing=6;spacingBottom=22;" vertex="1" parent="KegD0Um9H_0uhLg5imTw-223">
          <mxGeometry x="20" y="50" width="70" height="80" as="geometry" />
        </mxCell>
        <mxCell id="KegD0Um9H_0uhLg5imTw-225" value="平台" style="shape=document;whiteSpace=wrap;verticalAlign=middle;strokeColor=none;fillColor=#12aab5;shadow=0;fontColor=#FFFFFF;fontFamily=Helvetica;fontStyle=0;html=1;fontSize=12;spacing=6;spacingBottom=22;" vertex="1" parent="KegD0Um9H_0uhLg5imTw-223">
          <mxGeometry x="20" y="225" width="70" height="75" as="geometry" />
        </mxCell>
        <mxCell id="KegD0Um9H_0uhLg5imTw-237" value="终端" style="shape=document;whiteSpace=wrap;verticalAlign=middle;strokeColor=none;fillColor=#12aab5;shadow=0;fontColor=#FFFFFF;fontFamily=Helvetica;fontStyle=0;html=1;fontSize=12;spacing=6;spacingBottom=22;" vertex="1" parent="KegD0Um9H_0uhLg5imTw-223">
          <mxGeometry x="20" y="130" width="70" height="80" as="geometry" />
        </mxCell>
        <mxCell id="KegD0Um9H_0uhLg5imTw-238" value="平台" style="shape=document;whiteSpace=wrap;verticalAlign=middle;strokeColor=none;fillColor=#12aab5;shadow=0;fontColor=#FFFFFF;fontFamily=Helvetica;fontStyle=0;html=1;fontSize=12;spacing=6;spacingBottom=22;" vertex="1" parent="KegD0Um9H_0uhLg5imTw-223">
          <mxGeometry x="20" y="315" width="70" height="75" as="geometry" />
        </mxCell>
        <mxCell id="KegD0Um9H_0uhLg5imTw-236" style="edgeStyle=orthogonalEdgeStyle;rounded=1;orthogonalLoop=1;jettySize=auto;html=1;endArrow=block;strokeColor=#d79b00;strokeWidth=3;endFill=1;startArrow=classic;startFill=1;fillColor=#ffe6cc;" edge="1" parent="1">
          <mxGeometry relative="1" as="geometry">
            <mxPoint x="520" y="970" as="targetPoint" />
            <mxPoint x="470" y="970" as="sourcePoint" />
          </mxGeometry>
        </mxCell>
        <mxCell id="KegD0Um9H_0uhLg5imTw-229" value="接入服务" style="swimlane;whiteSpace=wrap;fillColor=#C7E9FC;swimlaneFillColor=#9EACD3;fontFamily=Tahoma;html=1;strokeColor=#6c8ebf;opacity=50;" vertex="1" parent="1">
          <mxGeometry x="360" y="805" width="110" height="325" as="geometry">
            <mxRectangle x="20" y="20" width="80" height="23" as="alternateBounds" />
          </mxGeometry>
        </mxCell>
        <mxCell id="KegD0Um9H_0uhLg5imTw-230" value="接入服务1" style="shape=document;whiteSpace=wrap;verticalAlign=middle;strokeColor=#006EAF;fillColor=#1ba1e2;shadow=0;fontFamily=Helvetica;fontStyle=0;html=1;fontSize=12;spacing=6;spacingBottom=22;fontColor=#ffffff;" vertex="1" parent="KegD0Um9H_0uhLg5imTw-229">
          <mxGeometry x="20" y="50" width="70" height="80" as="geometry" />
        </mxCell>
        <mxCell id="KegD0Um9H_0uhLg5imTw-231" value="接入服务n" style="shape=document;whiteSpace=wrap;verticalAlign=middle;strokeColor=#006EAF;fillColor=#1ba1e2;shadow=0;fontColor=#ffffff;fontFamily=Helvetica;fontStyle=0;html=1;fontSize=12;spacing=6;spacingBottom=22;" vertex="1" parent="KegD0Um9H_0uhLg5imTw-229">
          <mxGeometry x="20" y="225" width="70" height="75" as="geometry" />
        </mxCell>
        <mxCell id="KegD0Um9H_0uhLg5imTw-232" value="网关" style="rounded=0;whiteSpace=wrap;html=1;fillColor=#dae8fc;strokeColor=#6c8ebf;" vertex="1" parent="1">
          <mxGeometry x="310" y="827" width="15" height="583" as="geometry" />
        </mxCell>
        <mxCell id="KegD0Um9H_0uhLg5imTw-234" value="" style="edgeStyle=segmentEdgeStyle;strokeColor=#2F5B7C;strokeWidth=3;html=1;endArrow=block;endFill=1;" edge="1" parent="1">
          <mxGeometry width="100" height="100" relative="1" as="geometry">
            <mxPoint x="90" y="900" as="sourcePoint" />
            <mxPoint x="90" y="1155" as="targetPoint" />
          </mxGeometry>
        </mxCell>
        <mxCell id="KegD0Um9H_0uhLg5imTw-239" value="数据分析服务" style="swimlane;whiteSpace=wrap;fillColor=#dae8fc;swimlaneFillColor=#C7E9FC;fontFamily=Tahoma;html=1;strokeColor=#6c8ebf;opacity=50;" vertex="1" parent="1">
          <mxGeometry x="689.5" y="805" width="110.5" height="275" as="geometry">
            <mxRectangle x="20" y="20" width="80" height="23" as="alternateBounds" />
          </mxGeometry>
        </mxCell>
        <mxCell id="KegD0Um9H_0uhLg5imTw-240" value="数据分析服务1" style="shape=document;whiteSpace=wrap;verticalAlign=middle;strokeColor=#006EAF;fillColor=#1ba1e2;shadow=0;fontColor=#ffffff;fontFamily=Helvetica;fontStyle=0;html=1;fontSize=12;spacing=6;spacingBottom=22;" vertex="1" parent="KegD0Um9H_0uhLg5imTw-239">
          <mxGeometry x="20" y="50" width="70" height="80" as="geometry" />
        </mxCell>
        <mxCell id="KegD0Um9H_0uhLg5imTw-241" value="数据分析服务n" style="shape=document;whiteSpace=wrap;verticalAlign=middle;strokeColor=#006EAF;fillColor=#1ba1e2;shadow=0;fontColor=#ffffff;fontFamily=Helvetica;fontStyle=0;html=1;fontSize=12;spacing=6;spacingBottom=22;" vertex="1" parent="KegD0Um9H_0uhLg5imTw-239">
          <mxGeometry x="20" y="165" width="70" height="75" as="geometry" />
        </mxCell>
        <mxCell id="KegD0Um9H_0uhLg5imTw-242" value="" style="swimlane;whiteSpace=wrap;fillColor=#C7E9FC;swimlaneFillColor=#C7E9FC;fontFamily=Tahoma;html=1;strokeColor=#6c8ebf;opacity=50;" vertex="1" parent="1">
          <mxGeometry x="360" y="1140" width="110.5" height="275" as="geometry">
            <mxRectangle x="20" y="20" width="80" height="23" as="alternateBounds" />
          </mxGeometry>
        </mxCell>
        <mxCell id="KegD0Um9H_0uhLg5imTw-243" value="附件服务" style="shape=document;whiteSpace=wrap;verticalAlign=middle;strokeColor=#006EAF;fillColor=#1ba1e2;shadow=0;fontColor=#ffffff;fontFamily=Helvetica;fontStyle=0;html=1;fontSize=12;spacing=6;spacingBottom=22;" vertex="1" parent="KegD0Um9H_0uhLg5imTw-242">
          <mxGeometry x="20" y="50" width="70" height="80" as="geometry" />
        </mxCell>
        <mxCell id="KegD0Um9H_0uhLg5imTw-244" value="流媒体" style="shape=document;whiteSpace=wrap;verticalAlign=middle;strokeColor=#006EAF;fillColor=#1ba1e2;shadow=0;fontColor=#ffffff;fontFamily=Helvetica;fontStyle=0;html=1;fontSize=12;spacing=6;spacingBottom=22;" vertex="1" parent="KegD0Um9H_0uhLg5imTw-242">
          <mxGeometry x="20" y="165" width="70" height="75" as="geometry" />
        </mxCell>
        <mxCell id="KegD0Um9H_0uhLg5imTw-283" style="edgeStyle=orthogonalEdgeStyle;rounded=0;orthogonalLoop=1;jettySize=auto;html=1;exitX=0;exitY=0.75;exitDx=0;exitDy=0;" edge="1" parent="1" source="KegD0Um9H_0uhLg5imTw-248">
          <mxGeometry relative="1" as="geometry">
            <mxPoint x="690" y="1340" as="targetPoint" />
          </mxGeometry>
        </mxCell>
        <mxCell id="KegD0Um9H_0uhLg5imTw-248" value="" style="swimlane;whiteSpace=wrap;fillColor=#dae8fc;swimlaneFillColor=#C7E9FC;fontFamily=Tahoma;html=1;strokeColor=#6c8ebf;opacity=50;startSize=23;" vertex="1" parent="1">
          <mxGeometry x="689.5" y="1130" width="110.5" height="280" as="geometry">
            <mxRectangle x="20" y="20" width="80" height="23" as="alternateBounds" />
          </mxGeometry>
        </mxCell>
        <mxCell id="KegD0Um9H_0uhLg5imTw-249" value="指令中心" style="shape=document;whiteSpace=wrap;verticalAlign=middle;strokeColor=#006EAF;fillColor=#1ba1e2;shadow=0;fontColor=#ffffff;fontFamily=Helvetica;fontStyle=0;html=1;fontSize=12;spacing=6;spacingBottom=22;" vertex="1" parent="KegD0Um9H_0uhLg5imTw-248">
          <mxGeometry x="20" y="50" width="70" height="80" as="geometry" />
        </mxCell>
        <mxCell id="KegD0Um9H_0uhLg5imTw-250" value="视频信令中心" style="shape=document;whiteSpace=wrap;verticalAlign=middle;strokeColor=#006EAF;fillColor=#1ba1e2;shadow=0;fontColor=#ffffff;fontFamily=Helvetica;fontStyle=0;html=1;fontSize=12;spacing=6;spacingBottom=22;" vertex="1" parent="KegD0Um9H_0uhLg5imTw-248">
          <mxGeometry x="20" y="165" width="70" height="75" as="geometry" />
        </mxCell>
        <mxCell id="KegD0Um9H_0uhLg5imTw-252" style="edgeStyle=orthogonalEdgeStyle;rounded=1;orthogonalLoop=1;jettySize=auto;html=1;endArrow=block;strokeColor=#d79b00;strokeWidth=3;endFill=1;startArrow=classic;startFill=1;fillColor=#ffe6cc;" edge="1" parent="1">
          <mxGeometry relative="1" as="geometry">
            <mxPoint x="700" y="1210" as="targetPoint" />
            <mxPoint x="650" y="1210" as="sourcePoint" />
          </mxGeometry>
        </mxCell>
        <mxCell id="KegD0Um9H_0uhLg5imTw-254" style="edgeStyle=orthogonalEdgeStyle;rounded=1;orthogonalLoop=1;jettySize=auto;html=1;endArrow=block;strokeColor=#2F5B7C;strokeWidth=3;endFill=1;startArrow=classic;startFill=1;" edge="1" parent="1">
          <mxGeometry relative="1" as="geometry">
            <mxPoint x="699.25" y="1340" as="targetPoint" />
            <mxPoint x="469.75" y="1350" as="sourcePoint" />
            <Array as="points">
              <mxPoint x="579.25" y="1350" />
              <mxPoint x="579.25" y="1340" />
              <mxPoint x="689.25" y="1340" />
            </Array>
          </mxGeometry>
        </mxCell>
        <mxCell id="KegD0Um9H_0uhLg5imTw-255" style="edgeStyle=orthogonalEdgeStyle;rounded=1;orthogonalLoop=1;jettySize=auto;html=1;endArrow=block;strokeColor=#d79b00;strokeWidth=3;endFill=1;startArrow=classic;startFill=1;fillColor=#ffe6cc;" edge="1" parent="1">
          <mxGeometry relative="1" as="geometry">
            <mxPoint x="700" y="960" as="targetPoint" />
            <mxPoint x="650" y="960" as="sourcePoint" />
          </mxGeometry>
        </mxCell>
        <mxCell id="KegD0Um9H_0uhLg5imTw-256" value="&lt;font color=&quot;#23497d&quot;&gt;平台业务相关队列&lt;/font&gt;" style="swimlane;whiteSpace=wrap;fillColor=#dae8fc;swimlaneFillColor=#BAC8D3;fontFamily=Tahoma;html=1;strokeColor=#6c8ebf;opacity=50;" vertex="1" parent="1">
          <mxGeometry x="824.5" y="804" width="135.5" height="386" as="geometry">
            <mxRectangle x="20" y="20" width="80" height="23" as="alternateBounds" />
          </mxGeometry>
        </mxCell>
        <mxCell id="KegD0Um9H_0uhLg5imTw-257" value="业务位置队列" style="whiteSpace=wrap;fillColor=#2f5b7c;strokeColor=none;shadow=0;fontColor=#FFFFFF;fontFamily=Helvetica;fontStyle=0;html=1;fontSize=12;spacing=6;verticalAlign=middle;" vertex="1" parent="KegD0Um9H_0uhLg5imTw-256">
          <mxGeometry x="19" y="60" width="100" height="50" as="geometry" />
        </mxCell>
        <mxCell id="KegD0Um9H_0uhLg5imTw-258" value="业务报警队列" style="whiteSpace=wrap;fillColor=#2f5b7c;strokeColor=none;shadow=0;fontColor=#FFFFFF;fontFamily=Helvetica;fontStyle=0;html=1;fontSize=12;spacing=6;verticalAlign=middle;" vertex="1" parent="KegD0Um9H_0uhLg5imTw-256">
          <mxGeometry x="20" y="120" width="100" height="50" as="geometry" />
        </mxCell>
        <mxCell id="KegD0Um9H_0uhLg5imTw-259" value="业务队列" style="whiteSpace=wrap;fillColor=#2f5b7c;strokeColor=none;shadow=0;fontColor=#FFFFFF;fontFamily=Helvetica;fontStyle=0;html=1;fontSize=12;spacing=6;verticalAlign=middle;" vertex="1" parent="KegD0Um9H_0uhLg5imTw-256">
          <mxGeometry x="20" y="180" width="100" height="50" as="geometry" />
        </mxCell>
        <mxCell id="KegD0Um9H_0uhLg5imTw-260" value="通知队列" style="whiteSpace=wrap;fillColor=#2f5b7c;strokeColor=none;shadow=0;fontColor=#FFFFFF;fontFamily=Helvetica;fontStyle=0;html=1;fontSize=12;spacing=6;verticalAlign=middle;" vertex="1" parent="KegD0Um9H_0uhLg5imTw-256">
          <mxGeometry x="20" y="240" width="100" height="50" as="geometry" />
        </mxCell>
        <mxCell id="KegD0Um9H_0uhLg5imTw-261" value="通用入库队列" style="whiteSpace=wrap;fillColor=#2f5b7c;strokeColor=none;shadow=0;fontColor=#FFFFFF;fontFamily=Helvetica;fontStyle=0;html=1;fontSize=12;spacing=6;verticalAlign=middle;" vertex="1" parent="KegD0Um9H_0uhLg5imTw-256">
          <mxGeometry x="20" y="306" width="100" height="50" as="geometry" />
        </mxCell>
        <mxCell id="KegD0Um9H_0uhLg5imTw-262" value="" style="swimlane;whiteSpace=wrap;fillColor=#dae8fc;swimlaneFillColor=#C7E9FC;fontFamily=Tahoma;html=1;strokeColor=#6c8ebf;opacity=50;" vertex="1" parent="1">
          <mxGeometry x="984.5" y="804" width="105.5" height="606" as="geometry">
            <mxRectangle x="20" y="20" width="80" height="23" as="alternateBounds" />
          </mxGeometry>
        </mxCell>
        <mxCell id="KegD0Um9H_0uhLg5imTw-263" value="定时服务1" style="shape=document;whiteSpace=wrap;verticalAlign=middle;strokeColor=#006EAF;fillColor=#1ba1e2;shadow=0;fontColor=#ffffff;fontFamily=Helvetica;fontStyle=0;html=1;fontSize=12;spacing=6;spacingBottom=22;" vertex="1" parent="KegD0Um9H_0uhLg5imTw-262">
          <mxGeometry x="20" y="50" width="70" height="80" as="geometry" />
        </mxCell>
        <mxCell id="KegD0Um9H_0uhLg5imTw-264" value="通知中心1" style="shape=document;whiteSpace=wrap;verticalAlign=middle;strokeColor=#006EAF;fillColor=#1ba1e2;shadow=0;fontColor=#ffffff;fontFamily=Helvetica;fontStyle=0;html=1;fontSize=12;spacing=6;spacingBottom=22;" vertex="1" parent="KegD0Um9H_0uhLg5imTw-262">
          <mxGeometry x="20" y="276" width="70" height="75" as="geometry" />
        </mxCell>
        <mxCell id="KegD0Um9H_0uhLg5imTw-265" value="通知中心n" style="shape=document;whiteSpace=wrap;verticalAlign=middle;strokeColor=#006EAF;fillColor=#1ba1e2;shadow=0;fontColor=#ffffff;fontFamily=Helvetica;fontStyle=0;html=1;fontSize=12;spacing=6;spacingBottom=22;" vertex="1" parent="KegD0Um9H_0uhLg5imTw-262">
          <mxGeometry x="20" y="366" width="70" height="75" as="geometry" />
        </mxCell>
        <mxCell id="KegD0Um9H_0uhLg5imTw-266" value="定时服务n" style="shape=document;whiteSpace=wrap;verticalAlign=middle;strokeColor=#006EAF;fillColor=#1ba1e2;shadow=0;fontColor=#ffffff;fontFamily=Helvetica;fontStyle=0;html=1;fontSize=12;spacing=6;spacingBottom=22;" vertex="1" parent="KegD0Um9H_0uhLg5imTw-262">
          <mxGeometry x="20" y="146" width="70" height="80" as="geometry" />
        </mxCell>
        <mxCell id="KegD0Um9H_0uhLg5imTw-296" style="edgeStyle=orthogonalEdgeStyle;rounded=1;orthogonalLoop=1;jettySize=auto;html=1;endArrow=block;strokeColor=#d6b656;strokeWidth=3;endFill=1;startArrow=classic;startFill=1;fillColor=#fff2cc;" edge="1" parent="KegD0Um9H_0uhLg5imTw-262">
          <mxGeometry relative="1" as="geometry">
            <mxPoint x="125.5" y="351" as="targetPoint" />
            <mxPoint x="-24.5" y="361" as="sourcePoint" />
            <Array as="points">
              <mxPoint x="45.5" y="361" />
              <mxPoint x="45.5" y="351" />
            </Array>
          </mxGeometry>
        </mxCell>
        <mxCell id="KegD0Um9H_0uhLg5imTw-267" style="edgeStyle=orthogonalEdgeStyle;rounded=1;orthogonalLoop=1;jettySize=auto;html=1;endArrow=block;strokeColor=#d6b656;strokeWidth=3;endFill=1;startArrow=classic;startFill=1;fillColor=#fff2cc;" edge="1" parent="1">
          <mxGeometry relative="1" as="geometry">
            <mxPoint x="840" y="960" as="targetPoint" />
            <mxPoint x="790" y="960" as="sourcePoint" />
          </mxGeometry>
        </mxCell>
        <mxCell id="KegD0Um9H_0uhLg5imTw-269" style="edgeStyle=orthogonalEdgeStyle;rounded=1;orthogonalLoop=1;jettySize=auto;html=1;endArrow=block;strokeColor=#d6b656;strokeWidth=3;endFill=1;startArrow=classic;startFill=1;fillColor=#fff2cc;" edge="1" parent="1">
          <mxGeometry relative="1" as="geometry">
            <mxPoint x="1000" y="1000" as="targetPoint" />
            <mxPoint x="950" y="1000" as="sourcePoint" />
          </mxGeometry>
        </mxCell>
        <mxCell id="KegD0Um9H_0uhLg5imTw-271" style="edgeStyle=orthogonalEdgeStyle;rounded=1;orthogonalLoop=1;jettySize=auto;html=1;endArrow=block;strokeColor=#2F5B7C;strokeWidth=3;endFill=1;startArrow=classic;startFill=1;" edge="1" parent="1">
          <mxGeometry relative="1" as="geometry">
            <mxPoint x="362.5" y="1010" as="targetPoint" />
            <mxPoint x="272.5" y="1010" as="sourcePoint" />
          </mxGeometry>
        </mxCell>
        <mxCell id="KegD0Um9H_0uhLg5imTw-272" style="edgeStyle=orthogonalEdgeStyle;rounded=1;orthogonalLoop=1;jettySize=auto;html=1;endArrow=block;strokeColor=#2F5B7C;strokeWidth=3;endFill=1;startArrow=classic;startFill=1;" edge="1" parent="1">
          <mxGeometry relative="1" as="geometry">
            <mxPoint x="360" y="1277" as="targetPoint" />
            <mxPoint x="270" y="1277" as="sourcePoint" />
          </mxGeometry>
        </mxCell>
        <mxCell id="KegD0Um9H_0uhLg5imTw-273" value="业务服务" style="swimlane;whiteSpace=wrap;fillColor=#dae8fc;swimlaneFillColor=#C7E9FC;fontFamily=Tahoma;html=1;strokeColor=#6c8ebf;opacity=50;" vertex="1" parent="1">
          <mxGeometry x="1110" y="804" width="110.5" height="275" as="geometry">
            <mxRectangle x="20" y="20" width="80" height="23" as="alternateBounds" />
          </mxGeometry>
        </mxCell>
        <mxCell id="KegD0Um9H_0uhLg5imTw-274" value="业务服务1" style="shape=document;whiteSpace=wrap;verticalAlign=middle;strokeColor=#006EAF;fillColor=#1ba1e2;shadow=0;fontColor=#ffffff;fontFamily=Helvetica;fontStyle=0;html=1;fontSize=12;spacing=6;spacingBottom=22;" vertex="1" parent="KegD0Um9H_0uhLg5imTw-273">
          <mxGeometry x="20" y="50" width="70" height="80" as="geometry" />
        </mxCell>
        <mxCell id="KegD0Um9H_0uhLg5imTw-275" value="业务服务2" style="shape=document;whiteSpace=wrap;verticalAlign=middle;strokeColor=#006EAF;fillColor=#1ba1e2;shadow=0;fontColor=#ffffff;fontFamily=Helvetica;fontStyle=0;html=1;fontSize=12;spacing=6;spacingBottom=22;" vertex="1" parent="KegD0Um9H_0uhLg5imTw-273">
          <mxGeometry x="20" y="165" width="70" height="75" as="geometry" />
        </mxCell>
        <mxCell id="KegD0Um9H_0uhLg5imTw-276" value="转发服务" style="swimlane;whiteSpace=wrap;fillColor=#dae8fc;swimlaneFillColor=#C7E9FC;fontFamily=Tahoma;html=1;strokeColor=#6c8ebf;opacity=50;" vertex="1" parent="1">
          <mxGeometry x="1110" y="1132.5" width="110.5" height="275" as="geometry">
            <mxRectangle x="20" y="20" width="80" height="23" as="alternateBounds" />
          </mxGeometry>
        </mxCell>
        <mxCell id="KegD0Um9H_0uhLg5imTw-277" value="转发服务1" style="shape=document;whiteSpace=wrap;verticalAlign=middle;strokeColor=#006EAF;fillColor=#1ba1e2;shadow=0;fontColor=#ffffff;fontFamily=Helvetica;fontStyle=0;html=1;fontSize=12;spacing=6;spacingBottom=22;" vertex="1" parent="KegD0Um9H_0uhLg5imTw-276">
          <mxGeometry x="20" y="50" width="70" height="80" as="geometry" />
        </mxCell>
        <mxCell id="KegD0Um9H_0uhLg5imTw-278" value="转发服务2" style="shape=document;whiteSpace=wrap;verticalAlign=middle;strokeColor=#006EAF;fillColor=#1ba1e2;shadow=0;fontColor=#ffffff;fontFamily=Helvetica;fontStyle=0;html=1;fontSize=12;spacing=6;spacingBottom=22;" vertex="1" parent="KegD0Um9H_0uhLg5imTw-276">
          <mxGeometry x="20" y="165" width="70" height="75" as="geometry" />
        </mxCell>
        <mxCell id="KegD0Um9H_0uhLg5imTw-279" value="" style="swimlane;whiteSpace=wrap;fillColor=#dae8fc;swimlaneFillColor=#BAC8D3;fontFamily=Tahoma;html=1;strokeColor=#6c8ebf;opacity=50;startSize=23;" vertex="1" parent="1">
          <mxGeometry x="824.5" y="1200" width="135.5" height="210" as="geometry">
            <mxRectangle x="20" y="20" width="80" height="23" as="alternateBounds" />
          </mxGeometry>
        </mxCell>
        <mxCell id="KegD0Um9H_0uhLg5imTw-280" value="轨迹入库服务1" style="shape=document;whiteSpace=wrap;verticalAlign=middle;strokeColor=#006EAF;fillColor=#1ba1e2;shadow=0;fontColor=#ffffff;fontFamily=Helvetica;fontStyle=0;html=1;fontSize=12;spacing=6;spacingBottom=22;" vertex="1" parent="KegD0Um9H_0uhLg5imTw-279">
          <mxGeometry x="32" y="50" width="70" height="80" as="geometry" />
        </mxCell>
        <mxCell id="KegD0Um9H_0uhLg5imTw-281" value="轨迹入库服务2" style="shape=document;whiteSpace=wrap;verticalAlign=middle;strokeColor=#006EAF;fillColor=#1ba1e2;shadow=0;fontColor=#ffffff;fontFamily=Helvetica;fontStyle=0;html=1;fontSize=12;spacing=6;spacingBottom=22;" vertex="1" parent="KegD0Um9H_0uhLg5imTw-279">
          <mxGeometry x="31" y="132" width="70" height="75" as="geometry" />
        </mxCell>
        <mxCell id="KegD0Um9H_0uhLg5imTw-297" style="edgeStyle=orthogonalEdgeStyle;rounded=1;orthogonalLoop=1;jettySize=auto;html=1;endArrow=block;strokeColor=#d6b656;strokeWidth=3;endFill=1;startArrow=classic;startFill=1;fillColor=#fff2cc;" edge="1" parent="KegD0Um9H_0uhLg5imTw-279">
          <mxGeometry relative="1" as="geometry">
            <mxPoint x="75.5" y="-30" as="targetPoint" />
            <mxPoint x="75.5" y="20" as="sourcePoint" />
          </mxGeometry>
        </mxCell>
        <mxCell id="KegD0Um9H_0uhLg5imTw-268" style="edgeStyle=orthogonalEdgeStyle;rounded=1;orthogonalLoop=1;jettySize=auto;html=1;endArrow=block;strokeColor=#d79b00;strokeWidth=3;endFill=1;startArrow=classic;startFill=1;fillColor=#ffe6cc;" edge="1" parent="1">
          <mxGeometry relative="1" as="geometry">
            <mxPoint x="990" y="1240" as="targetPoint" />
            <mxPoint x="660" y="1270" as="sourcePoint" />
            <Array as="points">
              <mxPoint x="822" y="1270" />
              <mxPoint x="822" y="1240" />
              <mxPoint x="985" y="1240" />
            </Array>
          </mxGeometry>
        </mxCell>
        <mxCell id="KegD0Um9H_0uhLg5imTw-284" value="网关" style="rounded=0;whiteSpace=wrap;html=1;fillColor=#dae8fc;strokeColor=#6c8ebf;" vertex="1" parent="1">
          <mxGeometry x="1250" y="827" width="15" height="583" as="geometry" />
        </mxCell>
        <mxCell id="KegD0Um9H_0uhLg5imTw-285" value="终端、平台" style="swimlane;whiteSpace=wrap;fillColor=#e1d5e7;swimlaneFillColor=#BAC8D3;fontFamily=Tahoma;html=1;strokeColor=#9673a6;opacity=50;startSize=23;" vertex="1" parent="1">
          <mxGeometry x="1290" y="804" width="110" height="615" as="geometry">
            <mxRectangle x="20" y="20" width="80" height="23" as="alternateBounds" />
          </mxGeometry>
        </mxCell>
        <mxCell id="KegD0Um9H_0uhLg5imTw-286" value="客户端" style="shape=document;whiteSpace=wrap;verticalAlign=middle;strokeColor=none;fillColor=#12aab5;shadow=0;fontColor=#FFFFFF;fontFamily=Helvetica;fontStyle=0;html=1;fontSize=12;spacing=6;spacingBottom=22;" vertex="1" parent="KegD0Um9H_0uhLg5imTw-285">
          <mxGeometry x="20" y="50" width="70" height="80" as="geometry" />
        </mxCell>
        <mxCell id="KegD0Um9H_0uhLg5imTw-287" value="平台" style="shape=document;whiteSpace=wrap;verticalAlign=middle;strokeColor=none;fillColor=#12aab5;shadow=0;fontColor=#FFFFFF;fontFamily=Helvetica;fontStyle=0;html=1;fontSize=12;spacing=6;spacingBottom=22;" vertex="1" parent="KegD0Um9H_0uhLg5imTw-285">
          <mxGeometry x="20" y="356" width="70" height="75" as="geometry" />
        </mxCell>
        <mxCell id="KegD0Um9H_0uhLg5imTw-289" value="平台" style="shape=document;whiteSpace=wrap;verticalAlign=middle;strokeColor=none;fillColor=#12aab5;shadow=0;fontColor=#FFFFFF;fontFamily=Helvetica;fontStyle=0;html=1;fontSize=12;spacing=6;spacingBottom=22;" vertex="1" parent="KegD0Um9H_0uhLg5imTw-285">
          <mxGeometry x="20" y="456" width="70" height="75" as="geometry" />
        </mxCell>
        <mxCell id="KegD0Um9H_0uhLg5imTw-290" value="客户端" style="shape=document;whiteSpace=wrap;verticalAlign=middle;strokeColor=none;fillColor=#12aab5;shadow=0;fontColor=#FFFFFF;fontFamily=Helvetica;fontStyle=0;html=1;fontSize=12;spacing=6;spacingBottom=22;" vertex="1" parent="KegD0Um9H_0uhLg5imTw-285">
          <mxGeometry x="20" y="136" width="70" height="80" as="geometry" />
        </mxCell>
        <mxCell id="KegD0Um9H_0uhLg5imTw-291" style="edgeStyle=orthogonalEdgeStyle;rounded=1;orthogonalLoop=1;jettySize=auto;html=1;endArrow=block;strokeColor=#2F5B7C;strokeWidth=3;endFill=1;startArrow=classic;startFill=1;" edge="1" parent="1">
          <mxGeometry relative="1" as="geometry">
            <mxPoint x="1302.5" y="960" as="targetPoint" />
            <mxPoint x="1212.5" y="960" as="sourcePoint" />
          </mxGeometry>
        </mxCell>
        <mxCell id="KegD0Um9H_0uhLg5imTw-292" style="edgeStyle=orthogonalEdgeStyle;rounded=1;orthogonalLoop=1;jettySize=auto;html=1;endArrow=block;strokeColor=#d6b656;strokeWidth=3;endFill=1;startArrow=classic;startFill=1;fillColor=#fff2cc;" edge="1" parent="1">
          <mxGeometry relative="1" as="geometry">
            <mxPoint x="1110" y="1050" as="targetPoint" />
            <mxPoint x="960" y="1060" as="sourcePoint" />
            <Array as="points">
              <mxPoint x="1030" y="1060" />
              <mxPoint x="1030" y="1050" />
            </Array>
          </mxGeometry>
        </mxCell>
        <mxCell id="KegD0Um9H_0uhLg5imTw-294" style="edgeStyle=orthogonalEdgeStyle;rounded=1;orthogonalLoop=1;jettySize=auto;html=1;endArrow=block;strokeColor=#2F5B7C;strokeWidth=3;endFill=1;startArrow=classic;startFill=1;" edge="1" parent="1">
          <mxGeometry relative="1" as="geometry">
            <mxPoint x="1740" y="1300" as="targetPoint" />
            <mxPoint x="1650" y="1300" as="sourcePoint" />
          </mxGeometry>
        </mxCell>
        <mxCell id="KegD0Um9H_0uhLg5imTw-295" style="edgeStyle=orthogonalEdgeStyle;rounded=1;orthogonalLoop=1;jettySize=auto;html=1;endArrow=block;strokeColor=#2F5B7C;strokeWidth=3;endFill=1;startArrow=classic;startFill=1;" edge="1" parent="1">
          <mxGeometry relative="1" as="geometry">
            <mxPoint x="1300" y="1269.5" as="targetPoint" />
            <mxPoint x="1210" y="1269.5" as="sourcePoint" />
          </mxGeometry>
        </mxCell>
        <mxCell id="KegD0Um9H_0uhLg5imTw-300" style="edgeStyle=orthogonalEdgeStyle;rounded=1;orthogonalLoop=1;jettySize=auto;html=1;endArrow=block;strokeColor=#d79b00;strokeWidth=3;endFill=1;startArrow=classic;startFill=1;fillColor=#ffe6cc;exitX=0.5;exitY=1;exitDx=0;exitDy=0;" edge="1" parent="1" source="KegD0Um9H_0uhLg5imTw-217">
          <mxGeometry relative="1" as="geometry">
            <mxPoint x="1040" y="1420" as="targetPoint" />
            <mxPoint x="610" y="1520" as="sourcePoint" />
            <Array as="points">
              <mxPoint x="590" y="1450" />
              <mxPoint x="1040" y="1450" />
            </Array>
          </mxGeometry>
        </mxCell>
        <mxCell id="KegD0Um9H_0uhLg5imTw-301" style="edgeStyle=orthogonalEdgeStyle;rounded=1;orthogonalLoop=1;jettySize=auto;html=1;endArrow=block;strokeColor=#d79b00;strokeWidth=3;endFill=1;startArrow=classic;startFill=1;fillColor=#ffe6cc;" edge="1" parent="1">
          <mxGeometry relative="1" as="geometry">
            <mxPoint x="1160" y="1410" as="targetPoint" />
            <mxPoint x="600" y="1410" as="sourcePoint" />
            <Array as="points">
              <mxPoint x="600" y="1460" />
              <mxPoint x="1160" y="1460" />
            </Array>
          </mxGeometry>
        </mxCell>
      </root>
    </mxGraphModel>
  </diagram>
</mxfile>
